<svg width="16" height="16" viewBox="0 0 16 16" fill="none" xmlns="http://www.w3.org/2000/svg">
<path fill-rule="evenodd" clip-rule="evenodd" d="M7.64645 1.45895C7.84171 1.26368 8.15829 1.26368 8.35356 1.45895L10.8536 3.95895C11.0488 4.15421 11.0488 4.47079 10.8536 4.66605L8.35356 7.16605C8.15829 7.36132 7.84171 7.36132 7.64645 7.16605C7.45119 6.97079 7.45119 6.65421 7.64645 6.45895L9.36807 4.73733C9.07644 4.70806 8.64073 4.6875 8 4.6875C7.10999 4.6875 6.23996 4.95142 5.49994 5.44589C4.75992 5.94035 4.18314 6.64316 3.84254 7.46542C3.50195 8.28769 3.41284 9.19249 3.58647 10.0654C3.7601 10.9383 4.18869 11.7401 4.81802 12.3695C5.44736 12.9988 6.24918 13.4274 7.1221 13.601C7.99501 13.7747 8.89981 13.6856 9.72208 13.345C10.5443 13.0044 11.2471 12.4276 11.7416 11.6876C12.2361 10.9475 12.5 10.0775 12.5 9.1875C12.5 8.91136 12.7239 8.6875 13 8.6875C13.2761 8.6875 13.5 8.91136 13.5 9.1875C13.5 10.2753 13.1774 11.3387 12.5731 12.2431C11.9687 13.1476 11.1098 13.8526 10.1048 14.2688C9.09977 14.6851 7.9939 14.794 6.92701 14.5818C5.86011 14.3696 4.8801 13.8458 4.11092 13.0766C3.34173 12.3074 2.8179 11.3274 2.60568 10.2605C2.39346 9.1936 2.50238 8.08773 2.91867 7.08274C3.33495 6.07775 4.0399 5.21876 4.94437 4.61442C5.84884 4.01007 6.91221 3.6875 8 3.6875C8.49904 3.6875 8.89193 3.69953 9.20066 3.72026L7.64645 2.16605C7.45119 1.97079 7.45119 1.65421 7.64645 1.45895Z" fill="#464E59"/>
</svg>
